<?xml version="1.0" encoding="utf-8"?>
<!-- Generator: Adobe Illustrator 20.0.0, SVG Export Plug-In . SVG Version: 6.00 Build 0)  -->
<svg version="1.1" id="Layer_1" xmlns:sketch="http://www.bohemiancoding.com/sketch/ns"
	 xmlns="http://www.w3.org/2000/svg" xmlns:xlink="http://www.w3.org/1999/xlink" x="0px" y="0px" viewBox="0 0 366 51"
	 style="enable-background:new 0 0 366 51;" xml:space="preserve">
<style type="text/css">
	.st0{fill:#1AB3EC;}
	.st1{fill:#231F20;}
</style>
<title>logo-anduin-color-whitetext</title>
<desc>Created with Sketch.</desc>
<path id="logo" sketch:type="MSShapeGroup" class="st0" d="M30,0.5l-30,50h12l6-10l6,10h12l6-10l6,10h12L30,0.5 M30,20.2l-6,9.9
	l6,9.9l6-9.9L30,20.2"/>
<path id="Anduin-Transactions" sketch:type="MSShapeGroup" class="st1" d="M86,29.4h9.8L91,17.5L86,29.4z M82.7,37.5H80l9.9-22.7
	h2.2l9.9,22.7h-2.7l-2.5-6H85.2L82.7,37.5z M106.3,22.5c0,0.4,0.1,0.8,0.1,1.2s0,0.8,0,1.2h0.1c0.2-0.4,0.5-0.8,0.9-1.1
	c0.4-0.3,0.8-0.6,1.2-0.9c0.4-0.2,0.9-0.4,1.4-0.6c0.5-0.1,1-0.2,1.5-0.2c1.9,0,3.3,0.5,4.3,1.5c0.9,1,1.4,2.5,1.4,4.3v9.5H115v-8.3
	c0-1.7-0.3-2.9-0.9-3.8s-1.6-1.3-3.2-1.3c-0.1,0-0.4,0-0.9,0.1c-0.5,0.1-1,0.3-1.6,0.7c-0.5,0.4-1,1-1.5,1.7
	c-0.4,0.8-0.6,1.8-0.6,3.2v7.7h-2.1V25.8c0-0.4,0-0.9,0-1.5s-0.1-1.2-0.1-1.8H106.3z M123.3,30c0,0.8,0.1,1.6,0.4,2.3
	c0.3,0.7,0.6,1.4,1.1,1.9s1.1,1,1.8,1.3s1.5,0.5,2.4,0.5c0.9,0,1.6-0.2,2.4-0.5c0.7-0.3,1.4-0.7,1.9-1.3s0.9-1.2,1.2-1.9
	c0.3-0.7,0.4-1.5,0.4-2.3c0-0.8-0.1-1.6-0.4-2.3c-0.3-0.7-0.7-1.4-1.2-1.9s-1.2-1-1.9-1.3c-0.7-0.3-1.5-0.5-2.4-0.5
	c-0.9,0-1.7,0.2-2.4,0.5c-0.7,0.3-1.3,0.7-1.8,1.3s-0.9,1.2-1.1,1.9C123.5,28.4,123.3,29.2,123.3,30L123.3,30z M137,37.5h-2.1V35
	h-0.1c-0.3,0.5-0.7,0.9-1.2,1.3c-0.5,0.4-1,0.7-1.5,0.9c-0.5,0.2-1,0.4-1.6,0.5c-0.5,0.1-1.1,0.2-1.6,0.2c-1.2,0-2.2-0.2-3.2-0.6
	s-1.8-0.9-2.5-1.6c-0.7-0.7-1.3-1.5-1.6-2.5c-0.4-1-0.6-2-0.6-3.1c0-1.1,0.2-2.2,0.6-3.1s0.9-1.8,1.6-2.5c0.7-0.7,1.5-1.3,2.5-1.6
	s2-0.6,3.2-0.6c0.5,0,1,0.1,1.6,0.2c0.5,0.1,1.1,0.3,1.6,0.5c0.5,0.2,1,0.5,1.5,0.9c0.5,0.4,0.9,0.8,1.2,1.3h0.1V13.3h2.1V37.5z
	 M152.4,37.5c0-0.4-0.1-0.8-0.1-1.2s0-0.8,0-1.2h-0.1c-0.2,0.4-0.5,0.8-0.9,1.1s-0.8,0.6-1.2,0.9s-0.9,0.4-1.4,0.6
	c-0.5,0.1-1,0.2-1.5,0.2c-1.9,0-3.3-0.5-4.3-1.5c-0.9-1-1.4-2.5-1.4-4.3v-9.5h2.1v8.3c0,0.8,0.1,1.6,0.2,2.2
	c0.1,0.6,0.3,1.2,0.7,1.6c0.3,0.4,0.7,0.8,1.2,1c0.5,0.2,1.2,0.3,2,0.3c0.1,0,0.4,0,0.9-0.1c0.5-0.1,1-0.3,1.6-0.7s1-1,1.5-1.7
	c0.4-0.8,0.6-1.8,0.6-3.2v-7.7h2.1v11.7c0,0.4,0,0.9,0,1.5c0,0.6,0.1,1.2,0.1,1.8H152.4z M162.5,16.8c0,0.4-0.2,0.8-0.5,1.1
	c-0.3,0.3-0.7,0.4-1.1,0.4s-0.7-0.1-1.1-0.4c-0.3-0.3-0.5-0.7-0.5-1.1s0.2-0.8,0.5-1.1c0.3-0.3,0.7-0.4,1.1-0.4s0.7,0.1,1.1,0.4
	C162.3,15.9,162.5,16.3,162.5,16.8L162.5,16.8z M162,37.5h-2.1v-15h2.1V37.5z M169.1,22.5c0,0.4,0.1,0.8,0.1,1.2s0,0.8,0,1.2h0.1
	c0.2-0.4,0.5-0.8,0.9-1.1c0.4-0.3,0.8-0.6,1.2-0.9s0.9-0.4,1.4-0.6c0.5-0.1,1-0.2,1.5-0.2c1.9,0,3.3,0.5,4.3,1.5s1.4,2.5,1.4,4.3
	v9.5h-2.1v-8.3c0-1.7-0.3-2.9-0.9-3.8s-1.6-1.3-3.2-1.3c-0.1,0-0.4,0-0.9,0.1c-0.5,0.1-1,0.3-1.6,0.7c-0.5,0.4-1,1-1.5,1.7
	c-0.4,0.8-0.6,1.8-0.6,3.2v7.7h-2.1V25.8c0-0.4,0-0.9,0-1.5s-0.1-1.2-0.1-1.8H169.1z M201.8,37.5h-2.3V17h-7.6v-2.1h17.5V17h-7.6
	V37.5z M209.4,27.2c0-0.7,0-1.3,0-2s-0.1-1.6-0.1-2.7h2.1v2.8h0.1c0.1-0.4,0.4-0.8,0.6-1.2c0.3-0.4,0.6-0.7,1-1s0.9-0.5,1.4-0.7
	c0.5-0.2,1.1-0.3,1.8-0.3c0.6,0,1.1,0.1,1.6,0.2l-0.4,2.1c-0.3-0.1-0.7-0.2-1.2-0.2c-0.8,0-1.5,0.2-2.1,0.5
	c-0.6,0.3-1.1,0.7-1.4,1.2c-0.4,0.5-0.7,1-0.8,1.6c-0.2,0.6-0.3,1.1-0.3,1.6v8.4h-2.1V27.2z M228.3,30c-0.5,0-1.2,0-2,0.1
	c-0.8,0.1-1.6,0.2-2.3,0.4c-0.7,0.2-1.4,0.5-1.9,0.9c-0.5,0.4-0.8,1-0.8,1.8c0,0.5,0.1,0.9,0.3,1.3c0.2,0.4,0.5,0.6,0.8,0.9
	c0.3,0.2,0.7,0.4,1.1,0.5c0.4,0.1,0.8,0.1,1.3,0.1c0.8,0,1.4-0.1,2-0.4c0.6-0.3,1-0.6,1.4-1s0.7-0.9,0.8-1.5
	c0.2-0.6,0.3-1.2,0.3-1.9V30H228.3z M229.4,28.3v-0.4c0-2.6-1.3-3.9-3.8-3.9c-1.7,0-3.3,0.6-4.6,1.8l-1.3-1.5
	c1.4-1.5,3.5-2.2,6.3-2.2c0.7,0,1.4,0.1,2.1,0.3c0.7,0.2,1.3,0.5,1.7,1c0.5,0.4,0.9,1,1.2,1.6c0.3,0.7,0.4,1.5,0.4,2.4v6.7
	c0,0.6,0,1.2,0.1,1.8c0.1,0.6,0.1,1.1,0.2,1.6h-2c-0.1-0.4-0.1-0.8-0.1-1.2c0-0.4,0-0.8,0-1.2h-0.1c-0.6,1-1.3,1.7-2.2,2.2
	s-1.9,0.7-3.1,0.7c-0.7,0-1.3-0.1-1.9-0.3s-1.2-0.5-1.6-0.8c-0.5-0.4-0.9-0.8-1.2-1.4s-0.4-1.2-0.4-1.9c0-1.2,0.3-2.2,0.9-2.9
	c0.6-0.7,1.4-1.2,2.4-1.6c0.9-0.3,2-0.6,3-0.6c1.1-0.1,2.1-0.1,3-0.1H229.4z M238.4,22.5c0,0.4,0.1,0.8,0.1,1.2c0,0.4,0,0.8,0,1.2
	h0.1c0.2-0.4,0.5-0.8,0.9-1.1c0.4-0.3,0.8-0.6,1.2-0.9c0.4-0.2,0.9-0.4,1.4-0.6c0.5-0.1,1-0.2,1.5-0.2c1.9,0,3.3,0.5,4.3,1.5
	c0.9,1,1.4,2.5,1.4,4.3v9.5h-2.1v-8.3c0-1.7-0.3-2.9-0.9-3.8s-1.6-1.3-3.2-1.3c-0.1,0-0.4,0-0.9,0.1c-0.5,0.1-1,0.3-1.6,0.7
	c-0.5,0.4-1,1-1.5,1.7c-0.4,0.8-0.6,1.8-0.6,3.2v7.7h-2.1V25.8c0-0.4,0-0.9,0-1.5s-0.1-1.2-0.1-1.8H238.4z M262.1,26.1
	c-0.3-0.6-0.7-1.1-1.3-1.5c-0.5-0.4-1.2-0.5-2-0.5c-0.4,0-0.7,0-1.1,0.1c-0.4,0.1-0.7,0.2-1,0.4c-0.3,0.2-0.5,0.4-0.7,0.7
	c-0.2,0.3-0.3,0.6-0.3,1c0,0.7,0.2,1.2,0.7,1.5s1.2,0.6,2.2,0.8l2.1,0.5c1,0.2,1.9,0.7,2.6,1.4s1,1.6,1,2.7c0,0.8-0.2,1.5-0.5,2.1
	c-0.3,0.6-0.8,1.1-1.3,1.4s-1.2,0.6-1.9,0.8c-0.7,0.2-1.4,0.3-2.1,0.3c-1.2,0-2.2-0.2-3.2-0.7S253.7,36,253,35l1.8-1.2
	c0.4,0.7,1,1.2,1.6,1.6c0.7,0.4,1.4,0.6,2.3,0.6c0.4,0,0.9,0,1.3-0.1s0.8-0.2,1.1-0.4c0.3-0.2,0.6-0.5,0.8-0.8
	c0.2-0.3,0.3-0.7,0.3-1.1c0-0.7-0.3-1.3-0.8-1.6c-0.6-0.3-1.2-0.6-2-0.8l-2-0.5c-0.3-0.1-0.6-0.2-1-0.3c-0.4-0.1-0.9-0.4-1.3-0.7
	c-0.4-0.3-0.8-0.7-1.1-1.2c-0.3-0.5-0.4-1.1-0.4-1.8c0-0.8,0.2-1.4,0.5-2c0.3-0.6,0.7-1,1.2-1.4c0.5-0.4,1.1-0.6,1.8-0.8
	c0.7-0.2,1.3-0.3,2-0.3c1,0,2,0.2,2.9,0.6c0.9,0.4,1.6,1.1,2.1,2.1L262.1,26.1z M276.4,30c-0.5,0-1.2,0-2,0.1
	c-0.8,0.1-1.6,0.2-2.3,0.4c-0.7,0.2-1.4,0.5-1.9,0.9c-0.5,0.4-0.8,1-0.8,1.8c0,0.5,0.1,0.9,0.3,1.3c0.2,0.4,0.5,0.6,0.8,0.9
	s0.7,0.4,1.1,0.5c0.4,0.1,0.8,0.1,1.3,0.1c0.8,0,1.4-0.1,2-0.4c0.6-0.3,1-0.6,1.4-1s0.7-0.9,0.8-1.5c0.2-0.6,0.3-1.2,0.3-1.9V30
	H276.4z M277.4,28.3v-0.4c0-2.6-1.3-3.9-3.8-3.9c-1.7,0-3.3,0.6-4.6,1.8l-1.3-1.5c1.4-1.5,3.5-2.2,6.3-2.2c0.7,0,1.4,0.1,2.1,0.3
	c0.7,0.2,1.3,0.5,1.7,1c0.5,0.4,0.9,1,1.2,1.6s0.4,1.5,0.4,2.4v6.7c0,0.6,0,1.2,0.1,1.8c0.1,0.6,0.1,1.1,0.2,1.6h-2
	c-0.1-0.4-0.1-0.8-0.1-1.2c0-0.4,0-0.8,0-1.2h-0.1c-0.6,1-1.3,1.7-2.2,2.2c-0.8,0.4-1.9,0.7-3.1,0.7c-0.7,0-1.3-0.1-1.9-0.3
	c-0.6-0.2-1.2-0.5-1.6-0.8c-0.5-0.4-0.9-0.8-1.2-1.4s-0.4-1.2-0.4-1.9c0-1.2,0.3-2.2,0.9-2.9s1.4-1.2,2.4-1.6s2-0.6,3-0.6
	c1.1-0.1,2.1-0.1,3-0.1H277.4z M295.4,26c-0.4-0.6-0.9-1-1.5-1.4c-0.7-0.4-1.4-0.6-2.2-0.6c-0.9,0-1.7,0.1-2.4,0.4
	c-0.7,0.3-1.3,0.7-1.8,1.2c-0.5,0.5-0.9,1.2-1.1,1.9c-0.3,0.7-0.4,1.5-0.4,2.4c0,0.9,0.1,1.6,0.4,2.4c0.3,0.7,0.6,1.4,1.1,1.9
	s1.1,0.9,1.8,1.2c0.7,0.3,1.5,0.4,2.4,0.4c0.8,0,1.6-0.2,2.2-0.6s1.2-0.9,1.5-1.4l1.7,1.3c-0.7,0.9-1.6,1.5-2.5,1.9
	c-0.9,0.4-1.9,0.6-2.9,0.7c-1.2,0-2.3-0.2-3.3-0.6c-1-0.4-1.8-0.9-2.5-1.6c-0.7-0.7-1.2-1.5-1.6-2.5c-0.4-1-0.5-2-0.5-3.2
	c0-1.1,0.2-2.2,0.5-3.2c0.4-1,0.9-1.8,1.6-2.5c0.7-0.7,1.5-1.3,2.5-1.6c1-0.4,2.1-0.6,3.3-0.6c1,0,2,0.2,2.9,0.7s1.8,1.1,2.5,1.9
	L295.4,26z M307.6,24.4h-4.3v8.8c0,0.6,0.1,1,0.2,1.4c0.1,0.4,0.3,0.6,0.4,0.8c0.2,0.2,0.4,0.3,0.7,0.4c0.3,0.1,0.6,0.1,0.9,0.1
	c0.4,0,0.7-0.1,1.1-0.2s0.7-0.2,1.1-0.4l0.1,2c-0.8,0.4-1.7,0.5-2.8,0.5c-0.4,0-0.8-0.1-1.3-0.2c-0.4-0.1-0.8-0.3-1.2-0.6
	s-0.7-0.7-0.9-1.2c-0.2-0.5-0.4-1.2-0.4-2v-9.4H298v-1.9h3.2v-4.2h2.1v4.2h4.3V24.4z M313.6,16.8c0,0.4-0.2,0.8-0.5,1.1
	c-0.3,0.3-0.7,0.4-1.1,0.4s-0.7-0.1-1.1-0.4c-0.3-0.3-0.5-0.7-0.5-1.1s0.2-0.8,0.5-1.1c0.3-0.3,0.7-0.4,1.1-0.4s0.7,0.1,1.1,0.4
	C313.4,15.9,313.6,16.3,313.6,16.8L313.6,16.8z M313.1,37.5H311v-15h2.1V37.5z M331,30c0-0.8-0.1-1.6-0.4-2.3
	c-0.3-0.7-0.6-1.4-1.1-1.9c-0.5-0.5-1.1-1-1.8-1.3c-0.7-0.3-1.5-0.5-2.4-0.5s-1.7,0.2-2.4,0.5c-0.7,0.3-1.3,0.7-1.8,1.3
	s-0.9,1.2-1.1,1.9c-0.3,0.7-0.4,1.5-0.4,2.3c0,0.8,0.1,1.6,0.4,2.3c0.3,0.7,0.6,1.4,1.1,1.9s1.1,1,1.8,1.3s1.5,0.5,2.4,0.5
	s1.7-0.2,2.4-0.5c0.7-0.3,1.3-0.7,1.8-1.3c0.5-0.5,0.9-1.2,1.1-1.9C330.9,31.6,331,30.8,331,30L331,30z M333.3,30
	c0,1.1-0.2,2.2-0.6,3.1c-0.4,1-0.9,1.8-1.6,2.5c-0.7,0.7-1.5,1.3-2.5,1.6s-2,0.6-3.2,0.6c-1.2,0-2.2-0.2-3.2-0.6s-1.8-0.9-2.5-1.6
	c-0.7-0.7-1.3-1.5-1.6-2.5c-0.4-1-0.6-2-0.6-3.1c0-1.1,0.2-2.2,0.6-3.1s0.9-1.8,1.6-2.5c0.7-0.7,1.5-1.3,2.5-1.6s2-0.6,3.2-0.6
	c1.2,0,2.2,0.2,3.2,0.6s1.8,0.9,2.5,1.6c0.7,0.7,1.3,1.5,1.6,2.5C333.1,27.8,333.3,28.9,333.3,30L333.3,30z M339.2,22.5
	c0,0.4,0.1,0.8,0.1,1.2c0,0.4,0,0.8,0,1.2h0.1c0.2-0.4,0.5-0.8,0.9-1.1c0.4-0.3,0.8-0.6,1.2-0.9s0.9-0.4,1.4-0.6
	c0.5-0.1,1-0.2,1.5-0.2c1.9,0,3.3,0.5,4.3,1.5s1.4,2.5,1.4,4.3v9.5h-2.1v-8.3c0-1.7-0.3-2.9-0.9-3.8c-0.6-0.9-1.6-1.3-3.2-1.3
	c-0.1,0-0.4,0-0.9,0.1c-0.5,0.1-1,0.3-1.6,0.7c-0.5,0.4-1,1-1.5,1.7c-0.4,0.8-0.6,1.8-0.6,3.2v7.7h-2.1V25.8c0-0.4,0-0.9,0-1.5
	c0-0.6-0.1-1.2-0.1-1.8H339.2z M362.9,26.1c-0.3-0.6-0.7-1.1-1.3-1.5c-0.5-0.4-1.2-0.5-2-0.5c-0.4,0-0.7,0-1.1,0.1
	c-0.4,0.1-0.7,0.2-1,0.4c-0.3,0.2-0.5,0.4-0.7,0.7c-0.2,0.3-0.3,0.6-0.3,1c0,0.7,0.2,1.2,0.7,1.5s1.2,0.6,2.2,0.8l2.1,0.5
	c1,0.2,1.9,0.7,2.6,1.4c0.7,0.7,1,1.6,1,2.7c0,0.8-0.2,1.5-0.5,2.1c-0.3,0.6-0.8,1.1-1.3,1.4c-0.5,0.4-1.2,0.6-1.9,0.8
	c-0.7,0.2-1.4,0.3-2.1,0.3c-1.2,0-2.2-0.2-3.2-0.7s-1.8-1.2-2.5-2.3l1.8-1.2c0.4,0.7,1,1.2,1.6,1.6c0.7,0.4,1.4,0.6,2.3,0.6
	c0.4,0,0.9,0,1.3-0.1s0.8-0.2,1.1-0.4c0.3-0.2,0.6-0.5,0.8-0.8c0.2-0.3,0.3-0.7,0.3-1.1c0-0.7-0.3-1.3-0.8-1.6
	c-0.6-0.3-1.2-0.6-2-0.8l-2-0.5c-0.3-0.1-0.6-0.2-1-0.3c-0.4-0.1-0.9-0.4-1.3-0.7c-0.4-0.3-0.8-0.7-1.1-1.2
	c-0.3-0.5-0.4-1.1-0.4-1.8c0-0.8,0.2-1.4,0.5-2c0.3-0.6,0.7-1,1.2-1.4c0.5-0.4,1.1-0.6,1.8-0.8c0.7-0.2,1.3-0.3,2-0.3
	c1,0,2,0.2,2.9,0.6c0.9,0.4,1.6,1.1,2.1,2.1L362.9,26.1z"/>
</svg>
