<?xml version="1.0" encoding="utf-8"?>
<!-- Generator: Adobe Illustrator 20.0.0, SVG Export Plug-In . SVG Version: 6.00 Build 0)  -->
<svg version="1.1" id="Layer_4" xmlns="http://www.w3.org/2000/svg" xmlns:xlink="http://www.w3.org/1999/xlink" x="0px" y="0px"
	 viewBox="0 0 1836.8 208.3" style="enable-background:new 0 0 1836.8 208.3;" xml:space="preserve">
<style type="text/css">
	.st0{fill:#757575;}
</style>
<path id="XMLID_3_" class="st0" d="M361.1,108.4c0,22-6.5,39.6-19.6,52.7c-14.8,15.6-34.1,23.4-57.9,23.4
	c-22.8,0-42.1-7.9-58.1-23.7c-15.9-15.8-23.9-35.4-23.9-58.7s8-42.9,23.9-58.7s35.3-23.7,58.1-23.7c11.3,0,22.1,2.2,32.4,6.6
	c10.3,4.4,18.5,10.3,24.7,17.6l-13.9,13.9C316.3,45.2,301.9,39,283.5,39c-16.6,0-31,5.8-43.1,17.5s-18.2,26.8-18.2,45.5
	s6.1,33.8,18.2,45.5s26.5,17.5,43.1,17.5c17.6,0,32.3-5.9,44.1-17.6c7.6-7.6,12-18.3,13.2-31.9h-57.3v-19h76.4
	C360.7,100.6,361.1,104.6,361.1,108.4L361.1,108.4z"/>
<path id="XMLID_20_" class="st0" d="M381.5,180.9V23.1h48.2c24.2,0,43.6,7.3,58.2,21.9c14.5,14.6,21.8,33.6,21.8,57
	s-7.3,42.3-21.8,57c-14.5,14.6-33.9,21.9-58.2,21.9H381.5z M401.8,161.5h28c18.2,0,32.6-5.2,43.3-15.6c10.6-10.4,16-25,16-43.8
	c0-18.7-5.3-33.2-16-43.7S448,42.6,429.8,42.6h-28V161.5z"/>
<path id="XMLID_23_" class="st0" d="M682.2,108.4c0,22-6.5,39.6-19.6,52.7c-14.8,15.6-34.1,23.4-57.9,23.4
	c-22.8,0-42.1-7.9-58.1-23.7c-15.9-15.8-23.9-35.4-23.9-58.7s8-42.9,23.9-58.7s35.3-23.7,58.1-23.7c11.3,0,22.1,2.2,32.4,6.6
	c10.3,4.4,18.5,10.3,24.7,17.6l-13.9,13.9C637.4,45.2,623,39,604.6,39c-16.6,0-31,5.8-43.1,17.5s-18.2,26.8-18.2,45.5
	s6.1,33.8,18.2,45.5S588,165,604.6,165c17.6,0,32.3-5.9,44.1-17.6c7.6-7.6,12-18.3,13.2-31.9h-57.3v-19H681
	C681.8,100.6,682.2,104.6,682.2,108.4L682.2,108.4z"/>
<g id="XMLID_261_">
	<path id="XMLID_259_" class="st0" d="M33.5,4H1.2l92.3,160l16.2-28L33.5,4z"/>
	<path id="XMLID_258_" class="st0" d="M122.1,95L69.5,4H37.3l74.3,128.8l10.5-18.2c1.7-2.8,2.8-6.2,2.8-9.8
		C124.8,101.2,123.8,97.9,122.1,95L122.1,95z"/>
	<path id="XMLID_257_" class="st0" d="M57.5,108.1L2.1,204h32.3l39.3-68L57.5,108.1z"/>
	<path id="XMLID_256_" class="st0" d="M75.5,139.3L38.2,204h32.2l21.3-36.8L75.5,139.3L75.5,139.3z"/>
</g>
<g>
	<path class="st0" d="M827.4,178.5h-20.7L752.2,23.8h22l42.3,125.5h0.9l44.1-125.5h22L827.4,178.5z"/>
	<path class="st0" d="M919.6,36.1c0,3.9-1.4,7.2-4.1,9.9c-2.7,2.7-6.1,4.1-9.9,4.1c-3.9,0-7.2-1.4-9.9-4.1c-2.7-2.7-4.1-6-4.1-9.9
		c0-3.9,1.4-7.2,4.1-9.9c2.7-2.7,6-4.1,9.9-4.1c3.9,0,7.2,1.4,9.9,4.1C918.2,28.9,919.6,32.2,919.6,36.1z M915.5,72.6v105.9h-19.9
		V72.6H915.5z"/>
	<path class="st0" d="M987.9,181.9c-15.6,0-28.4-5.3-38.5-16c-10.1-10.7-15.1-24.1-15.1-40.4c0-16.1,4.9-29.6,14.7-40.3
		c9.8-10.7,22.3-16.1,37.6-16.1c15.7,0,28.2,5.1,37.5,15.2c9.3,10.2,13.9,24.4,13.9,42.7l-0.2,2.2h-83.2
		c0.3,10.4,3.7,18.7,10.4,25.1c6.6,6.3,14.5,9.5,23.8,9.5c12.7,0,22.6-6.3,29.8-19l17.7,8.6c-4.8,8.9-11.3,15.9-19.8,21
		C1008.1,179.4,998.5,181.9,987.9,181.9z M956.1,112.8h60.7c-0.6-7.3-3.6-13.4-9-18.3c-5.4-4.8-12.6-7.2-21.7-7.2
		c-7.5,0-13.9,2.3-19.3,6.9C961.4,98.8,957.8,105,956.1,112.8z"/>
	<path class="st0" d="M1094.8,180.2c-8.6,0-15.8-2.7-21.5-8c-5.7-5.3-8.6-12.7-8.7-22.3V90.8H1046V72.6h18.6V40.2h19.9v32.4h25.9
		v18.1h-25.9v52.7c0,7.1,1.4,11.8,4.1,14.4c2.7,2.5,5.8,3.8,9.3,3.8c1.6,0,3.1-0.2,4.6-0.5c1.5-0.4,2.9-0.8,4.2-1.4l6.3,17.7
		C1107.8,179.3,1101.7,180.2,1094.8,180.2z"/>
	<path class="st0" d="M1130.5,72.6h19v14.7h0.9c3-5.2,7.7-9.5,13.9-13c6.3-3.5,12.8-5.2,19.6-5.2c13,0,22.9,3.7,29.9,11.1
		c7,7.4,10.5,18,10.5,31.7v66.5h-19.9v-65.2c-0.4-17.3-9.1-25.9-26.1-25.9c-7.9,0-14.5,3.2-19.9,9.6c-5.3,6.4-8,14.1-8,23v58.5
		h-19.9V72.6z"/>
	<path class="st0" d="M1286.6,69.2c14.7,0,26.3,3.9,34.8,11.8c8.5,7.9,12.7,18.6,12.7,32.3v65.2h-19v-14.7h-0.9
		c-8.2,12.1-19.2,18.1-32.8,18.1c-11.7,0-21.4-3.5-29.3-10.4c-7.9-6.9-11.8-15.6-11.8-25.9c0-10.9,4.1-19.7,12.4-26.1
		c8.3-6.5,19.3-9.7,33.2-9.7c11.8,0,21.5,2.2,29.2,6.5v-4.5c0-6.9-2.7-12.8-8.2-17.6c-5.5-4.8-11.9-7.2-19.2-7.2
		c-11.1,0-19.9,4.7-26.4,14l-17.5-11C1253.5,76.1,1267.8,69.2,1286.6,69.2z M1260.9,146.1c0,5.2,2.2,9.5,6.6,13
		c4.4,3.5,9.5,5.2,15.4,5.2c8.4,0,15.8-3.1,22.4-9.3c6.6-6.2,9.8-13.5,9.8-21.8c-6.2-4.9-14.8-7.3-25.9-7.3
		c-8.1,0-14.8,1.9-20.2,5.8C1263.6,135.5,1260.9,140.3,1260.9,146.1z"/>
	<path class="st0" d="M1376.5,178.5h-19.9V72.6h19v14.7h0.9c3-5.2,7.7-9.5,13.9-13c6.3-3.5,12.5-5.2,18.7-5.2
		c7.8,0,14.6,1.8,20.5,5.4c5.9,3.6,10.2,8.6,13,14.9c8.8-13.5,21-20.3,36.5-20.3c12.2,0,21.7,3.7,28.3,11.2c6.6,7.5,9.9,18.1,9.9,32
		v66.1h-19.9v-63.1c0-9.9-1.8-17.1-5.4-21.5c-3.6-4.4-9.6-6.6-18.1-6.6c-7.6,0-14,3.2-19.2,9.7c-5.2,6.5-7.8,14.1-7.8,22.9v58.5
		h-19.9v-63.1c0-9.9-1.8-17.1-5.4-21.5c-3.6-4.4-9.7-6.6-18.1-6.6c-7.6,0-14,3.2-19.2,9.7c-5.2,6.5-7.8,14.1-7.8,22.9V178.5z"/>
</g>
</svg>
