<?xml version="1.0" encoding="utf-8"?>
<!-- Generator: Adobe Illustrator 20.0.0, SVG Export Plug-In . SVG Version: 6.00 Build 0)  -->
<svg version="1.1" id="Layer_4" xmlns="http://www.w3.org/2000/svg" xmlns:xlink="http://www.w3.org/1999/xlink" x="0px" y="0px"
	 viewBox="0 0 839 200" style="enable-background:new 0 0 839 200;" xml:space="preserve">
<style type="text/css">
	.st0{fill:none;}
	.st1{fill:#FFC107;}
	.st2{fill:#0F9D58;}
	.st3{opacity:0.2;fill:#BF360C;enable-background:new    ;}
	.st4{opacity:0.2;fill:#263238;enable-background:new    ;}
	.st5{opacity:0.2;fill:#FFFFFF;enable-background:new    ;}
	.st6{fill:url(#XMLID_3_);}
	.st7{fill:url(#XMLID_5_);}
	.st8{fill:#4285F4;}
	.st9{fill:#DB4437;}
	.st10{opacity:0.2;fill:#1A237E;enable-background:new    ;}
	.st11{opacity:0.2;fill:#3E2723;enable-background:new    ;}
	.st12{fill:url(#XMLID_6_);}
	.st13{fill:#767676;}
</style>
<g id="XMLID_60_">
	<g id="XMLID_61_">
		<g id="XMLID_62_">
			<path id="XMLID_106_" class="st0" d="M122.5,90.6L70.1,0H0l57.8,100L0,200h70.1l52.4-90.6C125.8,103.6,125.8,96.4,122.5,90.6z"/>
			<path id="XMLID_105_" class="st1" d="M92.4,159.8l-16.6-28.7L35.9,200h34.2l22.8-39.4L92.4,159.8z"/>
			<path id="XMLID_104_" class="st0" d="M122.5,90.6L70.1,0H0l57.8,100L0,200h70.1l52.4-90.6C125.8,103.6,125.8,96.4,122.5,90.6z"/>
			<path id="XMLID_103_" class="st2" d="M57.8,100l18,31.1L35.9,200H0L57.8,100z"/>
			<path id="XMLID_102_" class="st0" d="M122.5,90.6L70.1,0H0l57.8,100L0,200h70.1l52.4-90.6C125.8,103.6,125.8,96.4,122.5,90.6z"/>
			<path id="XMLID_101_" class="st3" d="M70.1,198.4H36.8l-0.9,1.6h34.2l22.8-39.4l-0.5-0.8L70.1,198.4z"/>
			<path id="XMLID_100_" class="st0" d="M122.5,90.6L70.1,0H0l57.8,100L0,200h70.1l52.4-90.6C125.8,103.6,125.8,96.4,122.5,90.6z"/>
			<path id="XMLID_99_" class="st4" d="M0.9,198.4L0,200h35.9l0.9-1.6H0.9z"/>
			<path id="XMLID_98_" class="st0" d="M122.5,90.6L70.1,0H0l57.8,100L0,200h70.1l52.4-90.6C125.8,103.6,125.8,96.4,122.5,90.6z"/>
			<path id="XMLID_96_" class="st5" d="M0,200h0.9l57.4-99.2l-0.5-0.8L0,200z"/>
			<path id="XMLID_94_" class="st0" d="M122.5,90.6L70.1,0H0l57.8,100L0,200h70.1l52.4-90.6C125.8,103.6,125.8,96.4,122.5,90.6z"/>
			
				<radialGradient id="XMLID_3_" cx="92.62" cy="2817.501" r="69.162" gradientTransform="matrix(1 0 0 -1 0 2977.46)" gradientUnits="userSpaceOnUse">
				<stop  offset="0" style="stop-color:#BF360C;stop-opacity:0.2"/>
				<stop  offset="1" style="stop-color:#BF360C;stop-opacity:2.000000e-02"/>
			</radialGradient>
			<path id="XMLID_92_" class="st6" d="M92.9,160.6l-17.1-29.5l-4.2,7.2L92.9,160.6z"/>
			<path id="XMLID_90_" class="st0" d="M122.5,90.6L70.1,0H0l57.8,100L0,200h70.1l52.4-90.6C125.8,103.6,125.8,96.4,122.5,90.6z"/>
			
				<radialGradient id="XMLID_5_" cx="92.423" cy="2817.063" r="69.723" gradientTransform="matrix(1 0 0 -1 0 2977.46)" gradientUnits="userSpaceOnUse">
				<stop  offset="0" style="stop-color:#263238;stop-opacity:0.2"/>
				<stop  offset="1" style="stop-color:#263238;stop-opacity:2.000000e-02"/>
			</radialGradient>
			<path id="XMLID_89_" class="st7" d="M71.6,138.3l4.2-7.2l-18-31.1l-8.5,14.8L71.6,138.3z"/>
			<path id="XMLID_88_" class="st0" d="M122.5,90.6L70.1,0H0l57.8,100L0,200h70.1l52.4-90.6C125.8,103.6,125.8,96.4,122.5,90.6z"/>
			<g id="XMLID_85_">
				<g id="XMLID_86_">
					<path id="XMLID_87_" class="st8" d="M35.9,0H0l92.9,160.6l17.9-31.1L35.9,0z"/>
				</g>
			</g>
			<path id="XMLID_84_" class="st0" d="M122.5,90.6L70.1,0H0l57.8,100L0,200h70.1l52.4-90.6C125.8,103.6,125.8,96.4,122.5,90.6z"/>
			<path id="XMLID_83_" class="st9" d="M122.5,109.4c3.4-5.8,3.4-13,0-18.8L70.1,0H35.9l74.9,129.5L122.5,109.4z"/>
			<path id="XMLID_82_" class="st0" d="M122.5,90.6L70.1,0H0l57.8,100L0,200h70.1l52.4-90.6C125.8,103.6,125.8,96.4,122.5,90.6z"/>
			<path id="XMLID_71_" class="st10" d="M110.8,129.5l-0.4-0.8L92.9,159L0.9,0H0l92.9,160.6L110.8,129.5z"/>
			<path id="XMLID_69_" class="st0" d="M122.5,90.6L70.1,0H0l57.8,100L0,200h70.1l52.4-90.6C125.8,103.6,125.8,96.4,122.5,90.6z"/>
			<path id="XMLID_67_" class="st5" d="M70.1,1.6l52.4,90.6c1.5,2.7,2.3,5.6,2.5,8.6c0.1-3.5-0.7-7-2.5-10.2L70.1,0H0l0.9,1.6H70.1z
				"/>
			<path id="XMLID_66_" class="st0" d="M122.5,90.6L70.1,0H0l57.8,100L0,200h70.1l52.4-90.6C125.8,103.6,125.8,96.4,122.5,90.6z"/>
			<path id="XMLID_65_" class="st11" d="M110.8,129.5l11.6-20.1c1.8-3.1,2.6-6.7,2.5-10.2c-0.1,3-0.9,5.9-2.5,8.6l-12.1,20.9
				L110.8,129.5z"/>
			<path id="XMLID_64_" class="st0" d="M122.5,90.6L70.1,0H0l57.8,100L0,200h70.1l52.4-90.6C125.8,103.6,125.8,96.4,122.5,90.6z"/>
			
				<radialGradient id="XMLID_6_" cx="-1.563" cy="2975.8979" r="209.922" gradientTransform="matrix(1 0 0 -1 0 2977.46)" gradientUnits="userSpaceOnUse">
				<stop  offset="0" style="stop-color:#FFFFFF;stop-opacity:0.1"/>
				<stop  offset="1" style="stop-color:#FFFFFF;stop-opacity:0"/>
			</radialGradient>
			<path id="XMLID_63_" class="st12" d="M122.5,90.6L70.1,0H0l57.8,100L0,200h70.1l52.4-90.6C125.8,103.6,125.8,96.4,122.5,90.6z"/>
		</g>
	</g>
</g>
<path id="XMLID_2_" class="st13" d="M275.5,51.8c0,10.9-3.2,19.7-9.7,26.1c-7.4,7.7-17,11.6-28.8,11.6c-11.3,0-20.9-3.9-28.8-11.8
	c-7.9-7.8-11.9-17.6-11.9-29.1s4-21.3,11.9-29.1S225.7,7.7,237,7.7c5.6,0,11,1.1,16.1,3.3s9.2,5.1,12.2,8.8l-6.9,6.9
	c-5.2-6.2-12.3-9.3-21.4-9.3c-8.2,0-15.4,2.9-21.4,8.7s-9,13.3-9,22.6s3,16.8,9,22.6c6,5.8,13.1,8.7,21.4,8.7c8.8,0,16-2.9,21.9-8.8
	c3.8-3.8,6-9.1,6.6-15.9H237v-9.4h38C275.3,48,275.5,49.9,275.5,51.8L275.5,51.8z"/>
<path id="XMLID_4_" class="st13" d="M285.4,87.8V9.5h24c12,0,21.7,3.6,28.9,10.9c7.2,7.3,10.8,16.7,10.8,28.3s-3.6,21-10.8,28.3
	c-7.2,7.3-16.8,10.9-28.9,10.9L285.4,87.8L285.4,87.8z M295.5,78.2h13.9c9,0,16.2-2.6,21.5-7.8c5.3-5.2,7.9-12.4,7.9-21.8
	c0-9.3-2.6-16.5-7.9-21.7s-12.5-7.8-21.5-7.8h-13.9C295.5,19.1,295.5,78.2,295.5,78.2z"/>
<path id="XMLID_8_" class="st13" d="M434.5,51.8c0,10.9-3.2,19.7-9.7,26.1c-7.4,7.7-17,11.6-28.8,11.6c-11.3,0-20.9-3.9-28.8-11.8
	c-7.9-7.8-11.9-17.6-11.9-29.1s4-21.3,11.9-29.1S384.7,7.7,396,7.7c5.6,0,11,1.1,16.1,3.3s9.2,5.1,12.2,8.8l-6.9,6.9
	c-5.2-6.2-12.3-9.3-21.4-9.3c-8.2,0-15.4,2.9-21.4,8.7s-9,13.3-9,22.6s3,16.8,9,22.6c6,5.8,13.1,8.7,21.4,8.7c8.8,0,16-2.9,21.9-8.8
	c3.8-3.8,6-9.1,6.6-15.9H396v-9.4h38C434.3,48,434.5,49.9,434.5,51.8L434.5,51.8z"/>
<path id="XMLID_10_" class="st13" d="M470.8,87.8V9.5h24c12,0,21.7,3.6,28.9,10.9s10.8,16.7,10.8,28.3s-3.6,21-10.8,28.3
	s-16.8,10.9-28.9,10.9L470.8,87.8L470.8,87.8z M480.9,78.2h13.9c9,0,16.2-2.6,21.5-7.8c5.3-5.2,7.9-12.4,7.9-21.8
	c0-9.3-2.6-16.5-7.9-21.7c-5.3-5.2-12.5-7.8-21.5-7.8h-13.9C480.9,19.1,480.9,78.2,480.9,78.2z"/>
<path id="XMLID_13_" class="st13" d="M567.4,89.6c-8.1,0-14.7-2.7-19.7-8.1c-5.1-5.4-7.6-12.2-7.6-20.5c0-7.8,2.5-14.5,7.4-20.1
	s11.2-8.4,18.9-8.4c7.9,0,14.3,2.6,19.1,7.8s7.2,12.1,7.2,20.8l-0.1,1.9h-42.3c0.3,5.4,2.1,9.7,5.4,12.8c3.3,3.1,7.2,4.7,11.6,4.7
	c7.2,0,12.1-3.1,14.7-9.2l9,3.7c-1.8,4.2-4.6,7.6-8.6,10.4C578.2,88.2,573.3,89.6,567.4,89.6L567.4,89.6z M581.9,54.6
	c-0.2-3.1-1.6-6-4.2-8.8c-2.6-2.8-6.4-4.2-11.5-4.2c-3.7,0-6.9,1.2-9.7,3.5c-2.7,2.3-4.6,5.5-5.6,9.4L581.9,54.6L581.9,54.6z"/>
<path id="XMLID_16_" class="st13" d="M613.7,87.8L592,34.2h11l15.8,41.6h0.2l16-41.6h10.7l-21.9,53.6H613.7z"/>
<path id="XMLID_18_" class="st13" d="M661.6,87.8h-10.1V9.5h45.7v9.6h-35.7v25.7h32.2v9.4h-32.2L661.6,87.8L661.6,87.8z"/>
<path id="XMLID_20_" class="st13" d="M727.7,89.6c-8.1,0-14.7-2.7-19.7-8.1c-5.1-5.4-7.6-12.2-7.6-20.5c0-7.8,2.5-14.5,7.4-20.1
	s11.2-8.4,18.9-8.4c7.9,0,14.3,2.6,19.1,7.8s7.2,12.1,7.2,20.8l-0.1,1.9h-42.3c0.3,5.4,2.1,9.7,5.4,12.8c3.3,3.1,7.2,4.7,11.6,4.7
	c7.2,0,12.1-3.1,14.7-9.2l9,3.7c-1.8,4.2-4.6,7.6-8.6,10.4C738.4,88.2,733.5,89.6,727.7,89.6L727.7,89.6z M742.1,54.6
	c-0.2-3.1-1.6-6-4.2-8.8c-2.6-2.8-6.4-4.2-11.5-4.2c-3.7,0-6.9,1.2-9.7,3.5c-2.7,2.3-4.6,5.5-5.6,9.4L742.1,54.6L742.1,54.6z"/>
<path id="XMLID_27_" class="st13" d="M779.5,89.6c-6,0-10.9-1.5-14.8-4.4c-3.9-2.9-6.8-6.6-8.6-10.9l9-3.7
	c2.8,6.7,7.7,10.1,14.5,10.1c3.1,0,5.7-0.7,7.7-2.1s3-3.2,3-5.5c0-3.5-2.4-5.9-7.3-7.1l-10.8-2.6c-3.4-0.9-6.7-2.5-9.7-5
	c-3.1-2.4-4.6-5.7-4.6-9.9c0-4.7,2.1-8.6,6.3-11.5c4.2-3,9.2-4.4,14.9-4.4c4.7,0,9,1.1,12.7,3.2c3.7,2.2,6.4,5.2,8,9.2l-8.8,3.6
	c-2-4.7-6.1-7.1-12.2-7.1c-3,0-5.5,0.6-7.5,1.9c-2,1.2-3.1,2.9-3.1,5c0,3.1,2.4,5.1,7.1,6.2l10.6,2.5c5,1.2,8.8,3.2,11.2,6
	s3.6,6.1,3.6,9.6c0,4.8-2,8.8-5.9,12C790.8,88,785.7,89.6,779.5,89.6L779.5,89.6z"/>
<path id="XMLID_29_" class="st13" d="M830.9,88.7c-5.6,0-9.9-1.5-12.9-4.5s-4.4-7.2-4.4-12.7V43.4h-9.4v-9.2h9.4V17.8h10.1v16.4
	h13.1v9.2h-13.1v27.3c0,5.8,2.4,8.8,7.2,8.8c1.8,0,3.4-0.3,4.6-0.9l3.5,8.6C836.8,88.2,834.1,88.7,830.9,88.7L830.9,88.7z"/>
<g>
	<path class="st13" d="M233.4,193H223l-27.2-77.3h11l21.2,62.7h0.4l22-62.7h11L233.4,193z"/>
	<path class="st13" d="M280.4,121.8c0,1.9-0.7,3.6-2.1,5c-1.4,1.4-3,2.1-5,2.1c-1.9,0-3.6-0.7-5-2.1c-1.4-1.4-2.1-3-2.1-5
		c0-1.9,0.7-3.6,2.1-5c1.4-1.4,3-2.1,5-2.1c1.9,0,3.6,0.7,5,2.1C279.7,118.2,280.4,119.9,280.4,121.8z M278.3,140.1V193h-9.9v-52.9
		H278.3z"/>
	<path class="st13" d="M315.4,194.7c-7.8,0-14.2-2.7-19.2-8c-5-5.3-7.6-12.1-7.6-20.2c0-8.1,2.4-14.8,7.3-20.1
		c4.9-5.4,11.2-8,18.8-8c7.8,0,14.1,2.5,18.7,7.6s7,12.2,7,21.3l-0.1,1.1h-41.6c0.1,5.2,1.9,9.4,5.2,12.5c3.3,3.2,7.3,4.8,11.9,4.8
		c6.3,0,11.3-3.2,14.9-9.5l8.9,4.3c-2.4,4.5-5.7,8-9.9,10.5C325.5,193.5,320.7,194.7,315.4,194.7z M299.5,160.2h30.3
		c-0.3-3.7-1.8-6.7-4.5-9.1c-2.7-2.4-6.3-3.6-10.9-3.6c-3.7,0-7,1.2-9.7,3.5C302.1,153.2,300.3,156.3,299.5,160.2z"/>
	<path class="st13" d="M369.7,193.9c-4.3,0-7.9-1.3-10.7-4c-2.8-2.7-4.3-6.4-4.4-11.1v-29.6h-9.3v-9.1h9.3v-16.2h9.9v16.2h13v9.1
		h-13v26.4c0,3.5,0.7,5.9,2.1,7.2c1.4,1.3,2.9,1.9,4.6,1.9c0.8,0,1.6-0.1,2.3-0.3c0.8-0.2,1.5-0.4,2.1-0.7l3.1,8.9
		C376.2,193.4,373.1,193.9,369.7,193.9z"/>
	<path class="st13" d="M388.4,140.1h9.5v7.3h0.4c1.5-2.6,3.8-4.8,7-6.5c3.1-1.7,6.4-2.6,9.8-2.6c6.5,0,11.5,1.9,15,5.6
		c3.5,3.7,5.2,9,5.2,15.8V193h-9.9v-32.6c-0.2-8.6-4.6-13-13.1-13c-4,0-7.3,1.6-9.9,4.8c-2.7,3.2-4,7-4,11.5V193h-9.9V140.1z"/>
	<path class="st13" d="M467.3,138.4c7.3,0,13.1,2,17.4,5.9c4.2,3.9,6.4,9.3,6.4,16.1V193h-9.5v-7.3h-0.4c-4.1,6-9.6,9.1-16.4,9.1
		c-5.8,0-10.7-1.7-14.6-5.2c-3.9-3.5-5.9-7.8-5.9-13c0-5.5,2.1-9.8,6.2-13.1c4.1-3.2,9.7-4.9,16.6-4.9c5.9,0,10.8,1.1,14.6,3.2v-2.3
		c0-3.5-1.4-6.4-4.1-8.8c-2.7-2.4-5.9-3.6-9.6-3.6c-5.5,0-9.9,2.3-13.2,7l-8.7-5.5C450.8,141.8,457.9,138.4,467.3,138.4z
		 M454.5,176.8c0,2.6,1.1,4.8,3.3,6.5c2.2,1.7,4.8,2.6,7.7,2.6c4.2,0,7.9-1.5,11.2-4.6c3.3-3.1,4.9-6.7,4.9-10.9
		c-3.1-2.4-7.4-3.7-13-3.7c-4,0-7.4,1-10.1,2.9C455.8,171.5,454.5,173.9,454.5,176.8z"/>
	<path class="st13" d="M513.1,193h-9.9v-52.9h9.5v7.3h0.4c1.5-2.6,3.8-4.8,7-6.5c3.1-1.7,6.2-2.6,9.3-2.6c3.9,0,7.3,0.9,10.3,2.7
		c3,1.8,5.1,4.3,6.5,7.5c4.4-6.8,10.5-10.2,18.3-10.2c6.1,0,10.8,1.9,14.1,5.6c3.3,3.7,5,9.1,5,16v33h-9.9v-31.5
		c0-5-0.9-8.5-2.7-10.7c-1.8-2.2-4.8-3.3-9.1-3.3c-3.8,0-7,1.6-9.6,4.9s-3.9,7.1-3.9,11.4V193h-9.9v-31.5c0-5-0.9-8.5-2.7-10.7
		c-1.8-2.2-4.8-3.3-9.1-3.3c-3.8,0-7,1.6-9.6,4.9s-3.9,7.1-3.9,11.4V193z"/>
	<path class="st13" d="M666,183.5v9.5h-47.1v-9.9l19.1-19.3c6.4-6.6,10.8-11.5,13.3-14.7c2.4-3.3,3.7-6.7,3.7-10.3
		c0-3.2-1.3-6-3.8-8.3c-2.5-2.3-5.8-3.5-9.7-3.5c-3.4,0-6.3,1-8.7,3c-2.4,2-4,4.5-4.8,7.3l-9.1-3.7c1.4-4.5,4.2-8.4,8.3-11.5
		c4.1-3.1,8.9-4.7,14.5-4.7c6.7,0,12.3,2.1,16.7,6.2c4.5,4.1,6.7,9.1,6.7,15.1c0,7.1-3.9,14.8-11.8,23.1l-21.6,21.7H666z"/>
	<path class="st13" d="M676.4,156.1c0-11.2,2.8-20.5,8.3-27.8c5.5-7.3,12.7-10.9,21.4-10.9c8.7,0,15.8,3.7,21.4,11
		c5.5,7.3,8.3,16.5,8.3,27.6c0,11.1-2.8,20.3-8.3,27.8c-5.5,7.3-12.7,10.9-21.4,10.9c-8.7,0-15.8-3.6-21.4-10.9
		C679.2,176.4,676.4,167.2,676.4,156.1z M725.6,156.1c0-8.5-1.8-15.5-5.4-21c-3.5-5.5-8.2-8.2-14.1-8.2c-5.9,0-10.6,2.7-14.1,8.2
		c-3.6,5.5-5.4,12.5-5.4,21c0,8.5,1.8,15.5,5.4,21.1c3.5,5.4,8.2,8.1,14.1,8.1c5.9,0,10.6-2.7,14.1-8.2
		C723.8,171.5,725.6,164.5,725.6,156.1z"/>
	<path class="st13" d="M772.7,119.1V193h-9.9v-61.6l-14.4,6.3l-3.8-8.4l21.7-10.2H772.7z"/>
	<path class="st13" d="M815.1,146.1c6,0,11.3,2.4,16,7.1c4.8,4.7,7.1,10.3,7.1,16.7c0,6.6-2.5,12.4-7.6,17.4
		c-5.1,4.9-11,7.3-17.7,7.3c-7.1,0-13.1-2.4-18-7.3c-4.9-4.9-7.3-10.7-7.3-17.4c0-6,2.4-12.8,7.2-20.4l21.5-32.2l8,5.5L806,148.2
		l0.2,0.2C808.4,146.9,811.4,146.1,815.1,146.1z M797.6,170.1c0,4.2,1.5,7.8,4.4,10.8c3,2.9,6.6,4.3,10.9,4.3
		c4.3,0,7.9-1.4,10.8-4.3c3-3,4.4-6.6,4.4-10.8c0-4.2-1.5-7.7-4.5-10.7c-3-3-6.5-4.4-10.7-4.4c-4.1,0-7.7,1.5-10.8,4.4
		C799.1,162.4,797.6,165.9,797.6,170.1z"/>
</g>
</svg>
