<svg xmlns="http://www.w3.org/2000/svg" viewBox="0 0 839 200"><defs><style>.cls-1{fill:#fff;}</style></defs><title>Asset 1</title><g id="Layer_2" data-name="Layer 2"><g id="Layer_4" data-name="Layer 4"><path id="_Path_" data-name="&lt;Path&gt;" class="cls-1" d="M275.5,51.8c0,10.9-3.2,19.7-9.7,26.1-7.4,7.7-17,11.6-28.8,11.6a39.16,39.16,0,0,1-28.8-11.8c-7.9-7.8-11.9-17.6-11.9-29.1s4-21.3,11.9-29.1A39.55,39.55,0,0,1,237,7.7,40.34,40.34,0,0,1,253.1,11a31.26,31.26,0,0,1,12.2,8.8l-6.9,6.9c-5.2-6.2-12.3-9.3-21.4-9.3a29.85,29.85,0,0,0-21.4,8.7c-6,5.8-9,13.3-9,22.6s3,16.8,9,22.6A29.68,29.68,0,0,0,237,80c8.8,0,16-2.9,21.9-8.8q5.7-5.7,6.6-15.9H237V45.9h38a41.46,41.46,0,0,1,.5,5.9Z"/><path id="_Compound_Path_" data-name="&lt;Compound Path&gt;" class="cls-1" d="M285.4,87.8V9.5h24c12,0,21.7,3.6,28.9,10.9s10.8,16.7,10.8,28.3-3.6,21-10.8,28.3-16.8,10.9-28.9,10.9h-24Zm10.1-9.6h13.9c9,0,16.2-2.6,21.5-7.8s7.9-12.4,7.9-21.8-2.6-16.5-7.9-21.7-12.5-7.8-21.5-7.8H295.5Z"/><path id="_Path_2" data-name="&lt;Path&gt;" class="cls-1" d="M434.5,51.8c0,10.9-3.2,19.7-9.7,26.1-7.4,7.7-17,11.6-28.8,11.6a39.16,39.16,0,0,1-28.8-11.8c-7.9-7.8-11.9-17.6-11.9-29.1s4-21.3,11.9-29.1A39.55,39.55,0,0,1,396,7.7,40.34,40.34,0,0,1,412.1,11a31.26,31.26,0,0,1,12.2,8.8l-6.9,6.9c-5.2-6.2-12.3-9.3-21.4-9.3a29.85,29.85,0,0,0-21.4,8.7c-6,5.8-9,13.3-9,22.6s3,16.8,9,22.6A29.68,29.68,0,0,0,396,80c8.8,0,16-2.9,21.9-8.8q5.7-5.7,6.6-15.9H396V45.9h38a41.46,41.46,0,0,1,.5,5.9Z"/><path id="_Compound_Path_2" data-name="&lt;Compound Path&gt;" class="cls-1" d="M470.8,87.8V9.5h24c12,0,21.7,3.6,28.9,10.9s10.8,16.7,10.8,28.3-3.6,21-10.8,28.3-16.8,10.9-28.9,10.9h-24Zm10.1-9.6h13.9c9,0,16.2-2.6,21.5-7.8s7.9-12.4,7.9-21.8-2.6-16.5-7.9-21.7-12.5-7.8-21.5-7.8H480.9Z"/><path id="_Compound_Path_3" data-name="&lt;Compound Path&gt;" class="cls-1" d="M567.4,89.6c-8.1,0-14.7-2.7-19.7-8.1s-7.6-12.2-7.6-20.5a29.54,29.54,0,0,1,7.4-20.1,24,24,0,0,1,18.9-8.4c7.9,0,14.3,2.6,19.1,7.8s7.2,12.1,7.2,20.8l-.1,1.9H550.3c.3,5.4,2.1,9.7,5.4,12.8a16.5,16.5,0,0,0,11.6,4.7c7.2,0,12.1-3.1,14.7-9.2l9,3.7a23.94,23.94,0,0,1-8.6,10.4,26.19,26.19,0,0,1-15,4.2Zm14.5-35a14.19,14.19,0,0,0-4.2-8.8c-2.6-2.8-6.4-4.2-11.5-4.2a14.82,14.82,0,0,0-9.7,3.5,17.92,17.92,0,0,0-5.6,9.4h31Z"/><path id="_Path_3" data-name="&lt;Path&gt;" class="cls-1" d="M613.7,87.8,592,34.2h11l15.8,41.6h.2l16-41.6h10.7L623.8,87.8Z"/><path id="_Path_4" data-name="&lt;Path&gt;" class="cls-1" d="M661.6,87.8H651.5V9.5h45.7v9.6H661.5V44.8h32.2v9.4H661.5V87.8Z"/><path id="_Compound_Path_4" data-name="&lt;Compound Path&gt;" class="cls-1" d="M727.7,89.6c-8.1,0-14.7-2.7-19.7-8.1s-7.6-12.2-7.6-20.5a29.54,29.54,0,0,1,7.4-20.1,24,24,0,0,1,18.9-8.4c7.9,0,14.3,2.6,19.1,7.8S753,52.4,753,61.1l-.1,1.9H710.6c.3,5.4,2.1,9.7,5.4,12.8a16.5,16.5,0,0,0,11.6,4.7c7.2,0,12.1-3.1,14.7-9.2l9,3.7a23.94,23.94,0,0,1-8.6,10.4,26.64,26.64,0,0,1-15,4.2Zm14.4-35a14.19,14.19,0,0,0-4.2-8.8c-2.6-2.8-6.4-4.2-11.5-4.2a14.82,14.82,0,0,0-9.7,3.5,17.92,17.92,0,0,0-5.6,9.4h31Z"/><path id="_Path_5" data-name="&lt;Path&gt;" class="cls-1" d="M779.5,89.6c-6,0-10.9-1.5-14.8-4.4a26,26,0,0,1-8.6-10.9l9-3.7c2.8,6.7,7.7,10.1,14.5,10.1a13.2,13.2,0,0,0,7.7-2.1,6.39,6.39,0,0,0,3-5.5c0-3.5-2.4-5.9-7.3-7.1l-10.8-2.6a25,25,0,0,1-9.7-5,11.79,11.79,0,0,1-4.6-9.9A13.45,13.45,0,0,1,764.2,37a25,25,0,0,1,14.9-4.4,25.48,25.48,0,0,1,12.7,3.2,18.43,18.43,0,0,1,8,9.2L791,48.6c-2-4.7-6.1-7.1-12.2-7.1a13.48,13.48,0,0,0-7.5,1.9,5.71,5.71,0,0,0-3.1,5c0,3.1,2.4,5.1,7.1,6.2l10.6,2.5c5,1.2,8.8,3.2,11.2,6a14.52,14.52,0,0,1,3.6,9.6,15,15,0,0,1-5.9,12c-4,3.3-9.1,4.9-15.3,4.9Z"/><path id="_Path_6" data-name="&lt;Path&gt;" class="cls-1" d="M830.9,88.7q-8.4,0-12.9-4.5c-3-3-4.4-7.2-4.4-12.7V43.4h-9.4V34.2h9.4V17.8h10.1V34.2h13.1v9.2H823.7V70.7c0,5.8,2.4,8.8,7.2,8.8a10.48,10.48,0,0,0,4.6-.9l3.5,8.6a19.53,19.53,0,0,1-8.1,1.5Z"/><g id="_Group_" data-name="&lt;Group&gt;"><path id="_Path_7" data-name="&lt;Path&gt;" class="cls-1" d="M32.3,0H0L92.3,160l16.2-28Z"/><path id="_Path_8" data-name="&lt;Path&gt;" class="cls-1" d="M120.9,91,68.3,0H36.1l74.3,128.8,10.5-18.2a19,19,0,0,0,2.8-9.8A20.33,20.33,0,0,0,120.9,91Z"/><path id="_Path_9" data-name="&lt;Path&gt;" class="cls-1" d="M56.3,104.1.9,200H33.2l39.3-68Z"/><path id="_Path_10" data-name="&lt;Path&gt;" class="cls-1" d="M74.3,135.3,37,200H69.2l21.3-36.8Z"/></g><path class="cls-1" d="M233.47,192H223.1l-27.22-77.33h11l21.17,62.75h.43l22-62.75h11Z"/><path class="cls-1" d="M280.34,120.83a7,7,0,1,1-2.05-5A6.77,6.77,0,0,1,280.34,120.83Zm-2.05,18.25V192h-9.94V139.08Z"/><path class="cls-1" d="M315.22,193.73q-11.66,0-19.22-8t-7.56-20.2q0-12.09,7.34-20.14a24.31,24.31,0,0,1,18.79-8q11.77,0,18.74,7.61t7,21.33l-.11,1.08H298.59q.22,7.78,5.18,12.53a16.58,16.58,0,0,0,11.88,4.75q9.5,0,14.9-9.5l8.86,4.32a26.38,26.38,0,0,1-9.88,10.48A27.34,27.34,0,0,1,315.22,193.73Zm-15.88-34.56H329.7a13.18,13.18,0,0,0-4.48-9.13q-4-3.62-10.85-3.62a14.4,14.4,0,0,0-9.67,3.46A16.51,16.51,0,0,0,299.35,159.17Z"/><path class="cls-1" d="M369.44,192.86a15.1,15.1,0,0,1-10.75-4q-4.27-4-4.37-11.12V148.15H345v-9.07h9.29v-16.2h9.94v16.2h13v9.07h-13V174.5q0,5.29,2.05,7.18a6.67,6.67,0,0,0,4.64,1.89,10,10,0,0,0,2.32-.27,11.85,11.85,0,0,0,2.11-.7l3.13,8.86A26.72,26.72,0,0,1,369.44,192.86Z"/><path class="cls-1" d="M388,139.08h9.5v7.34h.43a17.67,17.67,0,0,1,7-6.48,20,20,0,0,1,9.77-2.59q9.72,0,15,5.56t5.24,15.82V192H425V159.38q-.33-13-13.07-13a12.42,12.42,0,0,0-9.94,4.81,17.41,17.41,0,0,0-4,11.5V192H388Z"/><path class="cls-1" d="M466.85,137.35q11,0,17.39,5.89t6.37,16.15V192h-9.5v-7.34h-.43q-6.16,9.07-16.42,9.07a21.34,21.34,0,0,1-14.63-5.18,16.55,16.55,0,0,1-5.89-13A15.73,15.73,0,0,1,450,162.52q6.21-4.86,16.58-4.86,8.85,0,14.58,3.24v-2.27a11.31,11.31,0,0,0-4.1-8.8,14.08,14.08,0,0,0-9.61-3.62,15.23,15.23,0,0,0-13.18,7l-8.75-5.51Q452.7,137.35,466.85,137.35ZM454,175.8a7.93,7.93,0,0,0,3.29,6.48,12.12,12.12,0,0,0,7.72,2.59,15.83,15.83,0,0,0,11.18-4.64,14.54,14.54,0,0,0,4.91-10.91q-4.64-3.67-13-3.67a16.83,16.83,0,0,0-10.1,2.92A8.66,8.66,0,0,0,454,175.8Z"/><path class="cls-1" d="M512.54,192H502.6V139.08h9.5v7.34h.43a17.67,17.67,0,0,1,7-6.48,19.45,19.45,0,0,1,19.6.11,15.93,15.93,0,0,1,6.48,7.45q6.59-10.15,18.25-10.15,9.18,0,14.15,5.62t5,16v33H573V160.46q0-7.45-2.7-10.75t-9.07-3.29a11.87,11.87,0,0,0-9.61,4.86,17.78,17.78,0,0,0-3.89,11.45V192h-9.94V160.46q0-7.45-2.7-10.75T526,146.42a11.87,11.87,0,0,0-9.61,4.86,17.78,17.78,0,0,0-3.89,11.45Z"/><path class="cls-1" d="M665.25,182.5V192H618.16v-9.94l19.12-19.33A168.75,168.75,0,0,0,650.56,148a17,17,0,0,0,3.67-10.31,10.88,10.88,0,0,0-3.78-8.32,13.86,13.86,0,0,0-9.72-3.46,13.33,13.33,0,0,0-8.75,3,13.64,13.64,0,0,0-4.75,7.34l-9.07-3.67a23.7,23.7,0,0,1,22.79-16.2q10,0,16.74,6.16a19.74,19.74,0,0,1,6.7,15.12q0,10.69-11.77,23.11L631,182.5Z"/><path class="cls-1" d="M675.51,155.06q0-16.85,8.32-27.76t21.38-10.91q13.07,0,21.38,11t8.32,27.65q0,16.63-8.32,27.76-8.32,10.91-21.38,10.91t-21.38-10.91Q675.5,171.7,675.51,155.06Zm49.25,0q0-12.74-5.4-21t-14.15-8.21q-8.86,0-14.15,8.21t-5.4,21q0,12.74,5.4,21.06,5.29,8.1,14.15,8.1T719.35,176Q724.75,167.7,724.75,155.06Z"/><path class="cls-1" d="M771.73,118.13V192H761.8V130.44l-14.36,6.26-3.78-8.42,21.71-10.15Z"/><path class="cls-1" d="M814,145.13q9,0,16,7.13A22.69,22.69,0,0,1,837.07,169a23.67,23.67,0,0,1-7.56,17.39,24.84,24.84,0,0,1-17.71,7.34,24.51,24.51,0,0,1-18-7.34A23.76,23.76,0,0,1,786.42,169q0-9,7.24-20.41l21.49-32.18,8,5.51-18.25,25.27.22.22A15.52,15.52,0,0,1,814,145.13Zm-17.5,24a14.69,14.69,0,0,0,4.43,10.8,15,15,0,0,0,10.91,4.32A14.94,14.94,0,0,0,827,169.1a14.4,14.4,0,0,0-4.54-10.69A14.57,14.57,0,0,0,811.8,154a15.17,15.17,0,0,0-10.8,4.43A14.4,14.4,0,0,0,796.46,169.1Z"/></g></g></svg>