<svg xmlns="http://www.w3.org/2000/svg" viewBox="0 0 486 120"><defs><style>.cls-1{fill:#ef4739;}</style></defs><title>Asset 1</title><g id="Layer_2" data-name="Layer 2"><g id="Layer_1-2" data-name="Layer 1"><path class="cls-1" d="M153.2,55.9l-4.1,11.3A32.78,32.78,0,0,1,141.9,78c-3.5,3.4-7.9,6-13,6a10.92,10.92,0,0,1-9.1-4.4,13.07,13.07,0,0,1-2.2-7.7,21.1,21.1,0,0,1,1.3-7.7L127,41.8c.8-2.8.8-4.8-.1-6.2a5.51,5.51,0,0,0-4.5-1.9,16.09,16.09,0,0,0-8.8,3.2,17.54,17.54,0,0,0-6,7.8L94.4,81.2A4,4,0,0,1,90.5,84a9.32,9.32,0,0,1-1.4-.2,4.15,4.15,0,0,1-2.6-5.5L99.8,41.9c1-2.5,1-4.7-.1-6.2a5.51,5.51,0,0,0-4.5-1.9A16.09,16.09,0,0,0,86.4,37a17.54,17.54,0,0,0-6,7.8L66.9,81.2A4,4,0,0,1,63,84a11.55,11.55,0,0,1-1.6-.2,4.18,4.18,0,0,1-2.5-5.5L72.2,41.9a4.87,4.87,0,0,1,.4-1.1L73,40c.1-.1.1-.4.1-.5a.76.76,0,0,1,.1-.4,9.4,9.4,0,0,0,.6-3.1,3.16,3.16,0,0,0-.4-1.9c0-.2-.4-.4-1-.4a4.25,4.25,0,1,1,0-8.5,9.1,9.1,0,0,1,8,4l.4.5a1.07,1.07,0,0,0,.2.6,23.27,23.27,0,0,1,14-5,13.69,13.69,0,0,1,11.5,5.5,5.58,5.58,0,0,1,.5.8,23.33,23.33,0,0,1,15.5-6.4c5.1,0,9,1.8,11.5,5.5,2.7,3.8,3.1,8.9,1.2,14l-8.1,22.5c-1.1,2.9-1.2,6-.2,7.4a1,1,0,0,0,.6.5,4.23,4.23,0,0,0,1.6.2c2.5,0,5.4-1.6,7.5-3.8a22.06,22.06,0,0,0,4.7-7.3l4.1-11.3a4.11,4.11,0,0,1,5.5-2.5A4.17,4.17,0,0,1,153.2,55.9Z"/><path class="cls-1" d="M211.4,55.9l-4.1,11.3A32.78,32.78,0,0,1,200.1,78c-3.5,3.4-7.9,6-13,6-4.1,0-7.2-1.4-9.2-4.4a13.23,13.23,0,0,1-1.8-4c-5.6,5.2-12,8.4-18,8.4-10.2,0-14.9-8.4-15.3-17s3.6-18.1,8.1-24.9,10.2-11.9,16.4-14.7a21.28,21.28,0,0,1,9-2.2,13.86,13.86,0,0,1,12,6.1l.4.4c0,.1.1.2.2.4l1.4-4a4.26,4.26,0,1,1,8,2.9L185.2,67.3a10.77,10.77,0,0,0-.8,4.2,5.63,5.63,0,0,0,.7,3.2c.1.1.2.4.5.5a2.73,2.73,0,0,0,1.7.4c1.6,0,4.1-1,6.5-2.9a18.6,18.6,0,0,0,5.7-8.3l4.1-11.3a4.15,4.15,0,0,1,5.5-2.6A4,4,0,0,1,211.4,55.9ZM170.6,69.2A40.84,40.84,0,0,0,181.2,53c3-8.3,2-14.1.1-16.9a5.78,5.78,0,0,0-5-2.5c-3.7,0-8.1,2.3-12.3,6.1A41.6,41.6,0,0,0,153.4,56c-3.2,8.3-2.2,14.1-.2,16.9a5.78,5.78,0,0,0,5,2.5C161.6,75.4,166.3,73.1,170.6,69.2Z"/><path class="cls-1" d="M270,55.8l-4.1,11.3A27,27,0,0,1,258.7,78c-4.2,4-8.5,6-13.1,6-4.1,0-7.2-1.4-9.2-4.4a15.88,15.88,0,0,1-1.8-4c-5.7,5.2-12.1,8.4-18.2,8.4C206,84,201.3,75.5,201,66.9s3.5-18.1,8.1-24.9,10.4-12.1,16.6-15a21.28,21.28,0,0,1,9-2.2,13.86,13.86,0,0,1,12,6.1l.3.3a1.06,1.06,0,0,0,.2.5L257.6,2.9A4.15,4.15,0,0,1,263.1.3a4.15,4.15,0,0,1,2.6,5.5l-18.2,50-4.1,11.3a10.92,10.92,0,0,0-.8,4.3,5.07,5.07,0,0,0,.7,3.1c.1.1.2.4.5.5a2.73,2.73,0,0,0,1.7.4c2.7,0,5.4-1.6,7.5-3.8a22.06,22.06,0,0,0,4.7-7.3l4.2-11.4a4.11,4.11,0,0,1,5.5-2.5A4,4,0,0,1,270,55.8ZM228.9,69.1a39.8,39.8,0,0,0,10.6-16.2c3.2-8.5,2.2-14.3.2-17a5.78,5.78,0,0,0-5-2.5c-3.7,0-8.2,2.3-12.4,6.1a41.93,41.93,0,0,0-10.8,16.3c-3,8.5-2,14.4-.1,17.1a5.58,5.58,0,0,0,5,2.4C219.9,75.3,224.6,73,228.9,69.1Z"/><path class="cls-1" d="M262.5,76.7c-2.5-3.5-3.2-7.7-3.1-12A35.8,35.8,0,0,1,261.9,53a49.87,49.87,0,0,1,13.3-19.9c5.6-5,12-8,17.8-8,4.9,0,8.4,1.4,10.5,3.5a10,10,0,0,1,3,7.4c0,6.1-4.4,13.4-12,19.2A45.06,45.06,0,0,1,267.9,65c-.1,5.6,2.4,9,5.7,9.8a19.09,19.09,0,0,0,4.2.6,37.74,37.74,0,0,0,19.5-5.9c5.6-3.6,10-8.5,12.1-14.3a4.3,4.3,0,0,1,8.1,2.9,37.64,37.64,0,0,1-15.3,18.5,45.35,45.35,0,0,1-24.4,7.3Q267.45,83.9,262.5,76.7Zm18.1-37A41.6,41.6,0,0,0,270,56l-.1.1c0,.1,0,.1-.1.2a40.29,40.29,0,0,0,12.1-3.2,38.15,38.15,0,0,0,7.4-4.7c6.1-4.7,8.7-9.7,8.7-12.5a1.49,1.49,0,0,0-.6-1.4,9.08,9.08,0,0,0-1.4-.7,21.13,21.13,0,0,0-3-.2C289.2,33.6,284.8,35.9,280.6,39.7Z"/><path class="cls-1" d="M309.9,76.7c-2.5-3.5-3.2-7.7-3.1-12A35.8,35.8,0,0,1,309.3,53a49.87,49.87,0,0,1,13.3-19.9c5.6-5,12-8,17.8-8,4.9,0,8.4,1.4,10.5,3.5a10,10,0,0,1,3,7.4c0,6.1-4.4,13.4-12,19.2A45.06,45.06,0,0,1,315.3,65c-.1,5.6,2.4,9,5.7,9.8a19.09,19.09,0,0,0,4.2.6,37.74,37.74,0,0,0,19.5-5.9c5.6-3.6,10-8.5,12.1-14.3a4.3,4.3,0,0,1,8.1,2.9,37.64,37.64,0,0,1-15.3,18.5,45.35,45.35,0,0,1-24.4,7.3Q315,83.9,309.9,76.7Zm18.2-37A41.6,41.6,0,0,0,317.5,56l-.1.1c0,.1,0,.1-.1.2a40.29,40.29,0,0,0,12.1-3.2,38.15,38.15,0,0,0,7.4-4.7c6.1-4.7,8.7-9.7,8.7-12.5a1.49,1.49,0,0,0-.6-1.4,9.08,9.08,0,0,0-1.4-.7,21.13,21.13,0,0,0-3-.2C336.7,33.6,332.3,35.9,328.1,39.7Z"/><path class="cls-1" d="M411.1,55.6l-2.7,7.5c-2.7,7.6-7.8,13.1-13.9,17.4s-13.3,7.3-20.1,10.2l-5.4,15a24.48,24.48,0,0,1-6,9.1c-3.6,3.5-7.3,5.2-11.2,5.2-7.3,0-10.3-5.9-10.2-10.8a17.49,17.49,0,0,1,4.8-12.6,36.2,36.2,0,0,1,12.7-8.7c2.5-1.2,5.3-2.4,8-3.6.1-1.3,0-2.2-.4-2.6-.1,0-.1,0-.2-.1a1.72,1.72,0,0,0-.8-.1,4.4,4.4,0,0,1,0-8.8c2.9,0,7.3-3.5,9.1-8.4L383,41.7c.1-.4.2-.7.1-.8s-.1-.2-.1-.4c-.6-1.3-3-2.4-4.1-2.8l-.4-.1L373,35.4a45.57,45.57,0,0,0-1.4,4.4l-6.4,17.4a4.26,4.26,0,0,1-5.6,2.6,4.32,4.32,0,0,1-2.5-5.6l6.3-17.5c.4-1,.7-1.9,1-2.8l.7-2.5c-5.1-3.2-7.1-6.6-7.5-9.5a9.46,9.46,0,0,1,.5-5.8,8.91,8.91,0,0,1,11-5.2,8.9,8.9,0,0,1,4.4,4c1.3,2.4,2.2,6.1,1.6,11.5l6.7,2.6a14.21,14.21,0,0,1,4.2,1.9,13.6,13.6,0,0,1,4.9,5.4,9.68,9.68,0,0,1,.4,8L383,67.1a25.17,25.17,0,0,1-8.2,11,6.09,6.09,0,0,1,.8,2.5c5.4-2.4,10.6-4.9,14.9-8.3a27.49,27.49,0,0,0,9.6-12.2l2.7-7.5a4.41,4.41,0,0,1,8.3,3ZM363.4,95.5c-6.1,2.9-11,6-12.4,10.2-.8,2.3-.8,4.3-.2,5.2,0,.1.4.2,1.1.2,1.8,0,3.7-1.2,5.3-2.8a18.18,18.18,0,0,0,3.7-5.6Z"/><path class="cls-1" d="M433,55.9l-4.1,11.4A32.47,32.47,0,0,1,421.7,78c-3.5,3.4-7.9,6-13,6a10.79,10.79,0,0,1-9.1-4.4c-3.2-4.4-2.7-10.7-1-15.3L412,28a4,4,0,0,1,5.4-2.5,4.05,4.05,0,0,1,2.6,5.4L406.7,67.3c-1,2.8-1.1,5.9-.2,7.3a2.1,2.1,0,0,0,.7.5,2.37,2.37,0,0,0,1.6.4,10.93,10.93,0,0,0,6.3-2.9,21,21,0,0,0,5.9-8.4l4.1-11.1a4.15,4.15,0,0,1,5.5-2.6A4.07,4.07,0,0,1,433,55.9ZM417.6,12.3l1.6-4.2a4,4,0,0,1,5.4-2.5,4.05,4.05,0,0,1,2.6,5.4l-1.7,4.2a4,4,0,0,1-3.9,2.9,9.32,9.32,0,0,1-1.4-.2A4.28,4.28,0,0,1,417.6,12.3Z"/><path class="cls-1" d="M347.3,107.9H53.8A53.9,53.9,0,0,1,53.8.1H261.4a4,4,0,0,1,0,8H53.8a45.9,45.9,0,0,0,0,91.8H347.3a4,4,0,1,1,0,8Z"/><path class="cls-1" d="M432.2,107.9h-37a4,4,0,1,1,0-8h37a45.91,45.91,0,0,0,14-89.6,4.05,4.05,0,0,1-2.6-5,4,4,0,0,1,5-2.6,53.89,53.89,0,0,1-16.4,105.2Z"/><path class="cls-1" d="M394.7,8.1H292a4,4,0,1,1,0-8H394.7a4,4,0,1,1,0,8Z"/></g></g></svg>